<?xml version="1.0" encoding="UTF-8" standalone="no"?>
<svg
   width="1024"
   height="1024"
   version="1.1"
   id="svg11"
   sodipodi:docname="reminder-app.svg"
   inkscape:version="1.1 (c4e8f9e, 2021-05-24)"
   xmlns:inkscape="http://www.inkscape.org/namespaces/inkscape"
   xmlns:sodipodi="http://sodipodi.sourceforge.net/DTD/sodipodi-0.dtd"
   xmlns:xlink="http://www.w3.org/1999/xlink"
   xmlns="http://www.w3.org/2000/svg"
   xmlns:svg="http://www.w3.org/2000/svg"
   xmlns:rdf="http://www.w3.org/1999/02/22-rdf-syntax-ns#"
   xmlns:cc="http://creativecommons.org/ns#"
   xmlns:dc="http://purl.org/dc/elements/1.1/">
  <metadata
     id="metadata15">
    <rdf:RDF>
      <cc:Work
         rdf:about="">
        <dc:format>image/svg+xml</dc:format>
        <dc:type
           rdf:resource="http://purl.org/dc/dcmitype/StillImage" />
        <dc:title />
      </cc:Work>
    </rdf:RDF>
  </metadata>
  <sodipodi:namedview
     pagecolor="#ffffff"
     bordercolor="#666666"
     borderopacity="1"
     objecttolerance="10"
     gridtolerance="10"
     guidetolerance="10"
     inkscape:pageopacity="0"
     inkscape:pageshadow="2"
     inkscape:window-width="1280"
     inkscape:window-height="593"
     id="namedview13"
     showgrid="false"
     inkscape:zoom="0.17308622"
     inkscape:cx="476.64106"
     inkscape:cy="337.98184"
     inkscape:window-x="0"
     inkscape:window-y="25"
     inkscape:window-maximized="0"
     inkscape:current-layer="svg11"
     inkscape:document-rotation="0"
     inkscape:pagecheckerboard="0" />
  <defs
     id="defs5">
    <linearGradient
       inkscape:collect="always"
       id="linearGradient884">
      <stop
         style="stop-color:#d8d8d8;stop-opacity:1"
         offset="0"
         id="stop880" />
      <stop
         style="stop-color:#f0f0f0;stop-opacity:1"
         offset="0.27533588"
         id="stop1947" />
      <stop
         style="stop-color:#eeeeee;stop-opacity:1"
         offset="0.73502898"
         id="stop1917" />
      <stop
         style="stop-color:#ffffff;stop-opacity:1"
         offset="1"
         id="stop882" />
    </linearGradient>
    <filter
       id="blur_shadow"
       x="-0.034951456"
       y="-0.034951456"
       width="1.0699029"
       height="1.0699029">
      <feGaussianBlur
         stdDeviation="12"
         id="feGaussianBlur2" />
    </filter>
    <linearGradient
       inkscape:collect="always"
       xlink:href="#linearGradient884"
       id="linearGradient1901"
       gradientUnits="userSpaceOnUse"
       x1="509.0246"
       y1="97.677925"
       x2="509.0246"
       y2="924.00415" />
  </defs>
  <path
     d="M924 355.412c0-9.782 0-18.35-.056-28.133-.049-8.241-.144-16.48-.368-24.716-.484-17.954-1.543-36.061-4.736-53.813-3.238-18.01-8.526-34.77-16.859-51.133a171.963 171.963 0 00-31.661-43.559 172.06 172.06 0 00-43.574-31.64c-16.381-8.335-33.159-13.621-51.188-16.858-17.755-3.188-35.867-4.245-53.82-4.73-8.243-.223-16.485-.317-24.73-.368-9.788-.06-19.576-.055-29.364-.055L553.997 100h-84.999l-111.637.407c-9.807 0-19.614-.005-29.421.055-8.262.051-16.52.145-24.778.368-17.995.485-36.148 1.543-53.945 4.735-18.053 3.236-34.857 8.52-51.259 16.849a172.405 172.405 0 00-43.667 31.644 171.994 171.994 0 00-31.718 43.551c-8.356 16.372-13.654 33.143-16.9 51.162-3.196 17.746-4.255 35.846-4.742 53.792-.222 8.237-.318 16.476-.368 24.716-.06 9.784-.563 21.937-.563 31.72v195.999l.508 112.429c0 9.796-.004 19.592.055 29.388.05 8.252.146 16.502.369 24.751.486 17.976 1.547 36.109 4.746 53.886 3.245 18.032 8.542 34.818 16.891 51.201a172.24 172.24 0 0031.722 43.619 172.444 172.444 0 0043.659 31.684c16.412 8.346 33.224 13.639 51.288 16.88 17.789 3.193 35.936 4.252 53.924 4.737 8.258.223 16.517.318 24.779.368 9.807.059 19.613.059 29.42.059h310.283c9.788 0 19.576 0 29.364-.059 8.245-.05 16.487-.145 24.73-.368 17.96-.486 36.078-1.546 53.841-4.741 18.018-3.241 34.788-8.532 51.159-16.873a172.004 172.004 0 0043.582-31.687 172.23 172.23 0 0031.659-43.612c8.337-16.391 13.625-33.184 16.865-51.229 3.19-17.77 4.248-35.896 4.733-53.865.223-8.25.318-16.5.367-24.751.056-9.796.056-19.592.056-29.388V355.412z"
     fill="rgba(0,0,0,0.3)"
     filter="url(#blur_shadow)"
     transform="translate(0 10)"
     id="path7" />
  <path
     d="M924 355.412c0-9.782 0-18.35-.056-28.133-.049-8.241-.144-16.48-.368-24.716-.484-17.954-1.543-36.061-4.736-53.813-3.238-18.01-8.526-34.77-16.859-51.133a171.963 171.963 0 00-31.661-43.559 172.06 172.06 0 00-43.574-31.64c-16.381-8.335-33.159-13.621-51.188-16.858-17.755-3.188-35.867-4.245-53.82-4.73-8.243-.223-16.485-.317-24.73-.368-9.788-.06-19.576-.055-29.364-.055L553.997 100h-84.999l-111.637.407c-9.807 0-19.614-.005-29.421.055-8.262.051-16.52.145-24.778.368-17.995.485-36.148 1.543-53.945 4.735-18.053 3.236-34.857 8.52-51.259 16.849a172.405 172.405 0 00-43.667 31.644 171.994 171.994 0 00-31.718 43.551c-8.356 16.372-13.654 33.143-16.9 51.162-3.196 17.746-4.255 35.846-4.742 53.792-.222 8.237-.318 16.476-.368 24.716-.06 9.784-.563 21.937-.563 31.72v195.999l.508 112.429c0 9.796-.004 19.592.055 29.388.05 8.252.146 16.502.369 24.751.486 17.976 1.547 36.109 4.746 53.886 3.245 18.032 8.542 34.818 16.891 51.201a172.24 172.24 0 0031.722 43.619 172.444 172.444 0 0043.659 31.684c16.412 8.346 33.224 13.639 51.288 16.88 17.789 3.193 35.936 4.252 53.924 4.737 8.258.223 16.517.318 24.779.368 9.807.059 19.613.059 29.42.059h310.283c9.788 0 19.576 0 29.364-.059 8.245-.05 16.487-.145 24.73-.368 17.96-.486 36.078-1.546 53.841-4.741 18.018-3.241 34.788-8.532 51.159-16.873a172.004 172.004 0 0043.582-31.687 172.23 172.23 0 0031.659-43.612c8.337-16.391 13.625-33.184 16.865-51.229 3.19-17.77 4.248-35.896 4.733-53.865.223-8.25.318-16.5.367-24.751.056-9.796.056-19.592.056-29.388V355.412z"
     fill="#fff"
     id="path9"
     style="fill-opacity:1;fill:url(#linearGradient1901)" />
  <g
     id="g14"
     transform="matrix(14.425211,0,0,14.425211,182.46735,178.19669)"
     style="fill:#333333;fill-opacity:1">
    <g
       id="g12"
       style="fill:#333333;fill-opacity:1"
       transform="translate(-0.18307698,0.22455102)">
      <path
         d="M 43.971,3.439 44.45,2.842 C 44.965,2.198 44.862,1.26 44.221,0.746 43.577,0.232 42.64,0.333 42.125,0.975 L 41.646,1.572 C 38.468,-0.087 34.458,0.668 32.128,3.569 31.986,3.747 31.853,3.93 31.73,4.117 c 1.892,0.864 3.636,1.997 5.186,3.35 0.754,0.657 1.462,1.367 2.117,2.124 1.337,1.544 2.455,3.28 3.312,5.162 0.64,-0.426 1.229,-0.956 1.733,-1.588 2.33,-2.903 2.203,-6.982 -0.107,-9.726 z"
         id="path2"
         inkscape:connector-curvature="0"
         style="fill:#333333;fill-opacity:1" />
      <path
         d="m 37.293,39.303 c -1.245,1.138 -2.625,2.132 -4.108,2.954 l 0.751,1.639 c 0.419,0.912 1.317,1.45 2.259,1.45 0.347,0 0.7,-0.072 1.034,-0.229 1.247,-0.57 1.794,-2.046 1.223,-3.291 z"
         id="path4"
         inkscape:connector-curvature="0"
         style="fill:#333333;fill-opacity:1" />
      <path
         d="M 8.854,7.469 C 10.402,6.117 12.146,4.984 14.039,4.117 13.915,3.93 13.78,3.746 13.638,3.568 11.307,0.667 7.298,-0.088 4.119,1.571 L 3.639,0.976 C 3.126,0.334 2.187,0.233 1.543,0.748 0.901,1.26 0.799,2.199 1.314,2.842 l 0.479,0.597 c -2.308,2.743 -2.436,6.823 -0.106,9.726 0.509,0.633 1.098,1.166 1.741,1.592 C 4.282,12.875 5.401,11.139 6.736,9.595 7.393,8.838 8.101,8.128 8.854,7.469 Z"
         id="path6"
         inkscape:connector-curvature="0"
         style="fill:#333333;fill-opacity:1" />
      <path
         d="m 7.315,41.827 c -0.572,1.245 -0.023,2.721 1.224,3.291 0.334,0.156 0.686,0.229 1.032,0.229 0.942,0 1.842,-0.538 2.26,-1.45 l 0.754,-1.644 C 11.098,41.433 9.719,40.438 8.477,39.299 Z"
         id="path8"
         inkscape:connector-curvature="0"
         style="fill:#333333;fill-opacity:1" />
      <path
         d="m 22.886,5.177 c -10.15,0 -18.375,8.228 -18.375,18.376 0,10.148 8.225,18.374 18.375,18.374 10.148,0 18.374,-8.226 18.374,-18.374 0,-10.148 -8.225,-18.376 -18.374,-18.376 z m -0.073,21.259 c -1.593,0 -2.885,-1.29 -2.885,-2.886 0,-0.129 0.009,-0.255 0.026,-0.379 l -2.507,-2.002 c -0.643,-0.515 -0.746,-1.453 -0.233,-2.094 0.517,-0.644 1.451,-0.748 2.095,-0.235 l 2.036,1.628 0.051,-7.611 c 0.006,-0.82 0.672,-1.495 1.491,-1.495 0.002,0 0.007,0 0.01,0 0.823,0.072 1.485,0.692 1.479,1.515 l -0.058,8.206 c 0.827,0.507 1.381,1.424 1.381,2.464 0.002,1.595 -1.291,2.889 -2.886,2.889 z"
         id="path10"
         inkscape:connector-curvature="0"
         style="fill:#333333;fill-opacity:1" />
    </g>
  </g>
</svg>
