<?xml version="1.0" encoding="UTF-8" standalone="no"?>
<!-- Created with Inkscape (http://www.inkscape.org/) -->
<svg xmlns:dc="http://purl.org/dc/elements/1.1/" xmlns:cc="http://creativecommons.org/ns#" xmlns:rdf="http://www.w3.org/1999/02/22-rdf-syntax-ns#" xmlns:svg="http://www.w3.org/2000/svg" xmlns="http://www.w3.org/2000/svg" xmlns:inkscape="http://www.inkscape.org/namespaces/inkscape" version="1.1" width="357.97501" height="109.2" id="svg2" xml:space="preserve"><metadata id="metadata8"><rdf:RDF><cc:Work rdf:about=""><dc:format>image/svg+xml</dc:format><dc:type rdf:resource="http://purl.org/dc/dcmitype/StillImage"/></cc:Work></rdf:RDF></metadata><defs id="defs6"><clipPath id="clipPath18"><path d="M 0,873.559 0,0 l 2863.76,0 0,873.559 -2863.76,0 z" inkscape:connector-curvature="0" id="path20"/></clipPath></defs><g transform="matrix(1.25,0,0,-1.25,0,109.2)" id="g10"><g transform="scale(0.1,0.1)" id="g12"><g id="g14"><g clip-path="url(#clipPath18)" id="g16"><path d="M 2863.76,97.8711 C 2863.76,43.8086 2819.95,0 2765.88,0 2711.83,0 2668,43.8086 2668,97.8711 c 0,54.0819 43.83,97.8909 97.88,97.8909 54.07,0 97.88,-43.809 97.88,-97.8909" inkscape:connector-curvature="0" id="path22" style="fill:#f9ab1f;fill-opacity:1;fill-rule:nonzero;stroke:none"/><path d="m 300.758,873.559 0,-72.247 -113.141,0 0,-319.808 -76.168,0 0,319.808 -111.449,0 0,72.247 300.758,0" inkscape:connector-curvature="0" id="path24" style="fill:#040606;fill-opacity:1;fill-rule:nonzero;stroke:none"/><path d="m 705.176,873.559 0,-392.055 -76.738,0 0,161.875 -177.598,0 0,-161.875 -76.168,0 0,392.055 76.168,0 0,-156.254 177.598,0 0,156.254 76.738,0" inkscape:connector-curvature="0" id="path26" style="fill:#040606;fill-opacity:1;fill-rule:nonzero;stroke:none"/><path d="m 1062.15,553.762 0,-72.258 -272.263,0 0,392.055 272.263,0 0,-72.247 -196.095,0 0,-84.007 167.315,0 0,-68.344 -167.315,0 0,-95.199 196.095,0" inkscape:connector-curvature="0" id="path28" style="fill:#040606;fill-opacity:1;fill-rule:nonzero;stroke:none"/><path d="m 86.3398,327.637 0,-90.02 167.9372,0 0,-69.98 -167.9372,0 0,-159.80497 -76.1836,0 0,392.04697 277.5628,0 0,-72.242 -201.3792,0" inkscape:connector-curvature="0" id="path30" style="fill:#040606;fill-opacity:1;fill-rule:nonzero;stroke:none"/><path d="m 1119.29,399.879 0,-231.852 C 1119.29,59.9414 1056.91,0 956.023,0 854.566,0 792.77,60.5078 792.77,168.027 l 0,231.852 79.882,0 0,-231.852 c 0,-65.547 28.559,-96.3278 83.371,-96.3278 55.397,0 83.957,30.7808 83.957,96.3278 l 0,231.852 79.31,0" inkscape:connector-curvature="0" id="path32" style="fill:#040606;fill-opacity:1;fill-rule:nonzero;stroke:none"/><path d="m 1513.58,399.879 0,-392.02744 -69.43,0 c 0,0 -169.41,258.18344 -169.97,258.18344 l -2.14,0 0,-258.18344 -72.62,0 0,392.02744 69.44,0 c 0,0 169.68,-255.953 170.25,-255.953 l 1.11,0 0,255.953 73.36,0" inkscape:connector-curvature="0" id="path34" style="fill:#040606;fill-opacity:1;fill-rule:nonzero;stroke:none"/><path d="m 1746.4,80.0586 c 62.73,0 108.65,44.2574 108.65,122.0894 0,80.118 -48.17,126.036 -110.89,126.036 l -72.8,0 0,-248.1254 75.04,0 z m -5.6,319.8204 c 111.45,0 193.21,-78.434 193.21,-197.731 0,-118.7105 -80.63,-194.31597 -190.97,-194.31597 l -147.85,0 0,392.04697 145.61,0" inkscape:connector-curvature="0" id="path36" style="fill:#040606;fill-opacity:1;fill-rule:nonzero;stroke:none"/><path d="m 2082.86,210 97.12,0 c 39.77,0 59.93,27.441 59.93,59.375 0,32.48 -20.72,58.809 -59.93,58.809 l -97.12,0 0,-118.184 z M 2247.2,7.83203 2176.05,142.246 l -93.19,0 0,-134.41397 -76.18,0 0,392.04697 166.03,0 c 89.05,0 146.19,-51.539 146.19,-130.504 0,-53.203 -26.33,-92.402 -70.03,-112.012 l 84.03,-149.53097 -85.7,0" inkscape:connector-curvature="0" id="path38" style="fill:#040606;fill-opacity:1;fill-rule:nonzero;stroke:none"/><path d="m 2693.27,399.879 -138.89,-218.434 0,-173.61297 -76.18,0 0,173.61297 -138.9,218.434 83.45,0 c 0,0 92.98,-150.113 93.54,-150.113 l 0.56,0 c 0.55,0 92.96,150.113 92.96,150.113 l 83.46,0" inkscape:connector-curvature="0" id="path40" style="fill:#040606;fill-opacity:1;fill-rule:nonzero;stroke:none"/><path d="m 529.844,76.6406 c 70.625,0 127.894,57.2654 127.894,127.8714 0,70.644 -57.269,127.89 -127.894,127.89 -70.621,0 -127.879,-57.246 -127.879,-127.89 0,-70.606 57.258,-127.8714 127.879,-127.8714 z M 733.098,204.512 c 0,-112.2268 -90.993,-203.22294 -203.25,-203.22294 -112.235,0 -203.246,90.99614 -203.246,203.22294 0,112.265 91.011,203.261 203.246,203.261 112.257,0 203.25,-90.996 203.25,-203.261" inkscape:connector-curvature="0" id="path42" style="fill:#040606;fill-opacity:1;fill-rule:nonzero;stroke:none"/></g></g></g></g></svg>