<?xml version="1.0" encoding="UTF-8" standalone="no"?>
<svg
   xmlns:dc="http://purl.org/dc/elements/1.1/"
   xmlns:cc="http://creativecommons.org/ns#"
   xmlns:rdf="http://www.w3.org/1999/02/22-rdf-syntax-ns#"
   xmlns:svg="http://www.w3.org/2000/svg"
   xmlns="http://www.w3.org/2000/svg"
   xmlns:sodipodi="http://sodipodi.sourceforge.net/DTD/sodipodi-0.dtd"
   xmlns:inkscape="http://www.inkscape.org/namespaces/inkscape"
   version="1.1"
   id="Capa_1"
   x="0px"
   y="0px"
   width="45.766px"
   height="45.766px"
   viewBox="0 0 45.766 45.766"
   style="enable-background:new 0 0 45.766 45.766;"
   xml:space="preserve"
   sodipodi:docname="alarm-clock-active.svg"
   inkscape:version="1.0.1 (3bc2e813f5, 2020-09-07)"><metadata
   id="metadata51"><rdf:RDF><cc:Work
       rdf:about=""><dc:format>image/svg+xml</dc:format><dc:type
         rdf:resource="http://purl.org/dc/dcmitype/StillImage" /><dc:title /></cc:Work></rdf:RDF></metadata><defs
   id="defs49" /><sodipodi:namedview
   pagecolor="#ffffff"
   bordercolor="#666666"
   borderopacity="1"
   objecttolerance="10"
   gridtolerance="10"
   guidetolerance="10"
   inkscape:pageopacity="0"
   inkscape:pageshadow="2"
   inkscape:window-width="1597"
   inkscape:window-height="869"
   id="namedview47"
   showgrid="false"
   inkscape:zoom="5.199611"
   inkscape:cx="48.422864"
   inkscape:cy="17.070455"
   inkscape:window-x="0"
   inkscape:window-y="28"
   inkscape:window-maximized="0"
   inkscape:current-layer="g12"
   inkscape:document-rotation="0"
   inkscape:snap-bbox="false"
   inkscape:snap-global="true" />
<g
   id="g14"
   transform="matrix(0.63070243,0,0,0.63070243,8.4504977,8.4504876)"
   style="fill:#d3dae3">
	<g
   id="g12"
   style="fill:#d3dae3">
		<path
   d="M 43.971,3.439 44.45,2.842 C 44.965,2.198 44.862,1.26 44.221,0.746 43.577,0.232 42.64,0.333 42.125,0.975 L 41.646,1.572 C 38.468,-0.087 34.458,0.668 32.128,3.569 31.986,3.747 31.853,3.93 31.73,4.117 c 1.892,0.864 3.636,1.997 5.186,3.35 0.754,0.657 1.462,1.367 2.117,2.124 1.337,1.544 2.455,3.28 3.312,5.162 0.64,-0.426 1.229,-0.956 1.733,-1.588 2.33,-2.903 2.203,-6.982 -0.107,-9.726 z"
   id="path2"
   inkscape:connector-curvature="0"
   style="fill:#dee3ea;fill-opacity:1" />
		<path
   d="m 37.293,39.303 c -1.245,1.138 -2.625,2.132 -4.108,2.954 l 0.751,1.639 c 0.419,0.912 1.317,1.45 2.259,1.45 0.347,0 0.7,-0.072 1.034,-0.229 1.247,-0.57 1.794,-2.046 1.223,-3.291 z"
   id="path4"
   inkscape:connector-curvature="0"
   style="fill:#dee3ea;fill-opacity:1" />
		<path
   d="M 8.854,7.469 C 10.402,6.117 12.146,4.984 14.039,4.117 13.915,3.93 13.78,3.746 13.638,3.568 11.307,0.667 7.298,-0.088 4.119,1.571 L 3.639,0.976 C 3.126,0.334 2.187,0.233 1.543,0.748 0.901,1.26 0.799,2.199 1.314,2.842 l 0.479,0.597 c -2.308,2.743 -2.436,6.823 -0.106,9.726 0.509,0.633 1.098,1.166 1.741,1.592 C 4.282,12.875 5.401,11.139 6.736,9.595 7.393,8.838 8.101,8.128 8.854,7.469 Z"
   id="path6"
   inkscape:connector-curvature="0"
   style="fill:#dee3ea;fill-opacity:1" />
		<path
   d="m 7.315,41.827 c -0.572,1.245 -0.023,2.721 1.224,3.291 0.334,0.156 0.686,0.229 1.032,0.229 0.942,0 1.842,-0.538 2.26,-1.45 l 0.754,-1.644 C 11.098,41.433 9.719,40.438 8.477,39.299 Z"
   id="path8"
   inkscape:connector-curvature="0"
   style="fill:#dee3ea;fill-opacity:1" />
		<path
   id="path10"
   style="fill:#f3f4f6;stroke-width:0.630702;fill-opacity:1"
   d="M 22.884766 11.714844 C 16.483136 11.714844 11.294922 16.904319 11.294922 23.304688 C 11.294922 29.705056 16.483136 34.894531 22.884766 34.894531 C 29.285134 34.894531 34.472656 29.705056 34.472656 23.304688 C 34.472656 16.904319 29.285765 11.714844 22.884766 11.714844 z M 22.884766 13.640625 A 9.2273639 9.6631988 0 0 1 32.111328 23.304688 A 9.2273639 9.6631988 0 0 1 22.884766 32.96875 A 9.2273639 9.6631988 0 0 1 13.65625 23.304688 A 9.2273639 9.6631988 0 0 1 22.884766 13.640625 z "
   transform="matrix(1.5855338,0,0,1.5855338,-13.398549,-13.398533)" />
	<path
   style="fill:#ff4c4c;fill-opacity:1;stroke:none;stroke-width:1.35646px;stroke-linecap:butt;stroke-linejoin:miter;stroke-opacity:1"
   d="M 17.490848,13.498842 33.300673,24.258452 17.543551,34.38996 Z"
   id="path837"
   sodipodi:nodetypes="cccc" /></g>
</g>
</svg>
