<?xml version="1.0" encoding="UTF-8" standalone="no"?>
<svg
   xmlns:dc="http://purl.org/dc/elements/1.1/"
   xmlns:cc="http://creativecommons.org/ns#"
   xmlns:rdf="http://www.w3.org/1999/02/22-rdf-syntax-ns#"
   xmlns:svg="http://www.w3.org/2000/svg"
   xmlns="http://www.w3.org/2000/svg"
   xmlns:sodipodi="http://sodipodi.sourceforge.net/DTD/sodipodi-0.dtd"
   xmlns:inkscape="http://www.inkscape.org/namespaces/inkscape"
   inkscape:version="1.0 (4035a4fb49, 2020-05-01)"
   sodipodi:docname="alarm-clock-active.svg"
   xml:space="preserve"
   style="enable-background:new 0 0 45.766 45.766;"
   viewBox="0 0 45.766 45.766"
   height="45.766px"
   width="45.766px"
   y="0px"
   x="0px"
   id="Capa_1"
   version="1.1"><metadata
   id="metadata51"><rdf:RDF><cc:Work
       rdf:about=""><dc:format>image/svg+xml</dc:format><dc:type
         rdf:resource="http://purl.org/dc/dcmitype/StillImage" /><dc:title /></cc:Work></rdf:RDF></metadata><defs
   id="defs49" /><sodipodi:namedview
   inkscape:document-rotation="0"
   inkscape:current-layer="Capa_1"
   inkscape:window-maximized="0"
   inkscape:window-y="28"
   inkscape:window-x="0"
   inkscape:cy="20.441288"
   inkscape:cx="30.758944"
   inkscape:zoom="14.585256"
   showgrid="false"
   id="namedview47"
   inkscape:window-height="869"
   inkscape:window-width="1597"
   inkscape:pageshadow="2"
   inkscape:pageopacity="0"
   guidetolerance="10"
   gridtolerance="10"
   objecttolerance="10"
   borderopacity="1"
   bordercolor="#666666"
   pagecolor="#ffffff" />
<g
   style="fill:#ffd3b9;fill-opacity:1"
   transform="matrix(0.63070243,0,0,0.63070243,8.4504977,8.4504876)"
   id="g14">
	<g
   style="fill:#ffd3b9;fill-opacity:1"
   id="g12">
		<path
   style="fill:#ffd3b9;fill-opacity:1"
   inkscape:connector-curvature="0"
   id="path2"
   d="M 43.971,3.439 44.45,2.842 C 44.965,2.198 44.862,1.26 44.221,0.746 43.577,0.232 42.64,0.333 42.125,0.975 L 41.646,1.572 C 38.468,-0.087 34.458,0.668 32.128,3.569 31.986,3.747 31.853,3.93 31.73,4.117 c 1.892,0.864 3.636,1.997 5.186,3.35 0.754,0.657 1.462,1.367 2.117,2.124 1.337,1.544 2.455,3.28 3.312,5.162 0.64,-0.426 1.229,-0.956 1.733,-1.588 2.33,-2.903 2.203,-6.982 -0.107,-9.726 z" />
		<path
   style="fill:#ffd3b9;fill-opacity:1"
   inkscape:connector-curvature="0"
   id="path4"
   d="m 37.293,39.303 c -1.245,1.138 -2.625,2.132 -4.108,2.954 l 0.751,1.639 c 0.419,0.912 1.317,1.45 2.259,1.45 0.347,0 0.7,-0.072 1.034,-0.229 1.247,-0.57 1.794,-2.046 1.223,-3.291 z" />
		<path
   style="fill:#ffd3b9;fill-opacity:1"
   inkscape:connector-curvature="0"
   id="path6"
   d="M 8.854,7.469 C 10.402,6.117 12.146,4.984 14.039,4.117 13.915,3.93 13.78,3.746 13.638,3.568 11.307,0.667 7.298,-0.088 4.119,1.571 L 3.639,0.976 C 3.126,0.334 2.187,0.233 1.543,0.748 0.901,1.26 0.799,2.199 1.314,2.842 l 0.479,0.597 c -2.308,2.743 -2.436,6.823 -0.106,9.726 0.509,0.633 1.098,1.166 1.741,1.592 C 4.282,12.875 5.401,11.139 6.736,9.595 7.393,8.838 8.101,8.128 8.854,7.469 Z" />
		<path
   style="fill:#ffd3b9;fill-opacity:1"
   inkscape:connector-curvature="0"
   id="path8"
   d="m 7.315,41.827 c -0.572,1.245 -0.023,2.721 1.224,3.291 0.334,0.156 0.686,0.229 1.032,0.229 0.942,0 1.842,-0.538 2.26,-1.45 l 0.754,-1.644 C 11.098,41.433 9.719,40.438 8.477,39.299 Z" />
		<path
   style="fill:#ffd3b9;fill-opacity:1"
   inkscape:connector-curvature="0"
   id="path10"
   d="m 22.886,5.177 c -10.15,0 -18.375,8.228 -18.375,18.376 0,10.148 8.225,18.374 18.375,18.374 10.148,0 18.374,-8.226 18.374,-18.374 0,-10.148 -8.225,-18.376 -18.374,-18.376 z m -0.073,21.259 c -1.593,0 -2.885,-1.29 -2.885,-2.886 0,-0.129 0.009,-0.255 0.026,-0.379 l -2.507,-2.002 c -0.643,-0.515 -0.746,-1.453 -0.233,-2.094 0.517,-0.644 1.451,-0.748 2.095,-0.235 l 2.036,1.628 0.051,-7.611 c 0.006,-0.82 0.672,-1.495 1.491,-1.495 0.002,0 0.007,0 0.01,0 0.823,0.072 1.485,0.692 1.479,1.515 l -0.058,8.206 c 0.827,0.507 1.381,1.424 1.381,2.464 0.002,1.595 -1.291,2.889 -2.886,2.889 z" />
	</g>
</g>
</svg>
