<?xml version="1.0" encoding="UTF-8" standalone="no"?>
<!-- Generator: Adobe Illustrator 18.1.1, SVG Export Plug-In . SVG Version: 6.00 Build 0)  -->

<svg
   xmlns:dc="http://purl.org/dc/elements/1.1/"
   xmlns:cc="http://creativecommons.org/ns#"
   xmlns:rdf="http://www.w3.org/1999/02/22-rdf-syntax-ns#"
   xmlns:svg="http://www.w3.org/2000/svg"
   xmlns="http://www.w3.org/2000/svg"
   xmlns:sodipodi="http://sodipodi.sourceforge.net/DTD/sodipodi-0.dtd"
   xmlns:inkscape="http://www.inkscape.org/namespaces/inkscape"
   version="1.1"
   id="Capa_1"
   x="0px"
   y="0px"
   viewBox="0 0 482.204 482.204"
   style="enable-background:new 0 0 482.204 482.204;"
   xml:space="preserve"
   sodipodi:docname="goldendict.svg"
   inkscape:version="0.92.4 (5da689c313, 2019-01-14)"><metadata
   id="metadata47"><rdf:RDF><cc:Work
       rdf:about=""><dc:format>image/svg+xml</dc:format><dc:type
         rdf:resource="http://purl.org/dc/dcmitype/StillImage" /><dc:title></dc:title></cc:Work></rdf:RDF></metadata><defs
   id="defs45" /><sodipodi:namedview
   pagecolor="#ffffff"
   bordercolor="#666666"
   borderopacity="1"
   objecttolerance="10"
   gridtolerance="10"
   guidetolerance="10"
   inkscape:pageopacity="0"
   inkscape:pageshadow="2"
   inkscape:window-width="3194"
   inkscape:window-height="1738"
   id="namedview43"
   showgrid="false"
   inkscape:zoom="1.3842871"
   inkscape:cx="-40.132919"
   inkscape:cy="305.77139"
   inkscape:window-x="0"
   inkscape:window-y="56"
   inkscape:window-maximized="0"
   inkscape:current-layer="Capa_1" />
<g
   id="g10"
   transform="matrix(0.79624987,0,0,0.79624987,49.124562,49.124503)"
   style="fill:#d3dae3">
	<g
   id="g8"
   style="fill:#d3dae3">
		<path
   style="fill:#d3dae3"
   d="m 83.127,344.477 c 54.602,1.063 101.919,9.228 136.837,23.613 0.596,0.244 1.227,0.366 1.852,0.366 0.95,0 1.895,-0.279 2.706,-0.822 1.349,-0.902 2.158,-2.418 2.158,-4.041 l 0.019,-261.017 c 0,-1.992 -1.215,-3.783 -3.066,-4.519 L 85.019,42.899 c -1.496,-0.596 -3.193,-0.411 -4.527,0.494 -1.334,0.906 -2.133,2.413 -2.133,4.025 v 292.197 c 0,2.649 2.12,4.81 4.768,4.862 z"
   id="path2"
   inkscape:connector-curvature="0" />
		<path
   style="fill:#d3dae3"
   d="m 480.244,89.256 c -1.231,-0.917 -2.824,-1.198 -4.297,-0.759 l -49.025,14.657 c -2.06,0.616 -3.471,2.51 -3.471,4.659 v 252.151 c 0,0 0.218,3.978 -3.97,3.978 -4.796,0 -7.946,0 -7.946,0 -39.549,0 -113.045,4.105 -160.93,31.6 l -9.504,5.442 -9.503,-5.442 c -47.886,-27.494 -121.381,-31.6 -160.93,-31.6 0,0 -8.099,0 -10.142,0 -1.891,0 -1.775,-2.272 -1.775,-2.271 V 107.813 c 0,-2.149 -1.411,-4.043 -3.47,-4.659 L 6.256,88.497 C 4.783,88.058 3.19,88.339 1.958,89.256 0.726,90.173 0,91.619 0,93.155 v 305.069 c 0,1.372 0.581,2.681 1.597,3.604 1.017,0.921 2.375,1.372 3.741,1.236 14.571,-1.429 37.351,-3.131 63.124,-3.131 56.606,0 102.097,8.266 131.576,23.913 4.331,2.272 29.441,15.803 41.065,15.803 11.624,0 36.733,-13.53 41.063,-15.803 29.48,-15.647 74.971,-23.913 131.577,-23.913 25.771,0 48.553,1.702 63.123,3.131 1.367,0.136 2.725,-0.315 3.742,-1.236 1.016,-0.923 1.596,-2.231 1.596,-3.604 V 93.155 c -0.001,-1.536 -0.728,-2.982 -1.96,-3.899 z"
   id="path4"
   inkscape:connector-curvature="0" />
		<path
   style="fill:#d3dae3"
   d="m 257.679,367.634 c 0.812,0.543 1.757,0.822 2.706,0.822 0.626,0 1.256,-0.122 1.853,-0.366 34.917,-14.386 82.235,-22.551 136.837,-23.613 2.648,-0.052 4.769,-2.213 4.769,-4.861 V 47.418 c 0,-1.613 -0.799,-3.12 -2.133,-4.025 -1.334,-0.904 -3.031,-1.09 -4.528,-0.494 L 258.569,98.057 c -1.851,0.736 -3.065,2.527 -3.065,4.519 l 0.019,261.017 c -0.002,1.623 0.808,3.139 2.156,4.041 z"
   id="path6"
   inkscape:connector-curvature="0" />
	</g>
</g>
<g
   id="g12">
</g>
<g
   id="g14">
</g>
<g
   id="g16">
</g>
<g
   id="g18">
</g>
<g
   id="g20">
</g>
<g
   id="g22">
</g>
<g
   id="g24">
</g>
<g
   id="g26">
</g>
<g
   id="g28">
</g>
<g
   id="g30">
</g>
<g
   id="g32">
</g>
<g
   id="g34">
</g>
<g
   id="g36">
</g>
<g
   id="g38">
</g>
<g
   id="g40">
</g>
</svg>
